<svg xmlns="http://www.w3.org/2000/svg" viewBox="0 0 1200 400" preserveAspectRatio="xMidYMid slice">
  <defs>
    <linearGradient id="bg" x1="0" y1="0" x2="1" y2="1">
      <stop offset="0" stop-color="#f3e5d6"/>
      <stop offset="0.55" stop-color="#ead6c2"/>
      <stop offset="1" stop-color="#dfc4a7"/>
    </linearGradient>
    <linearGradient id="panel" x1="0" y1="0" x2="1" y2="0">
      <stop offset="0" stop-color="#ffffff" stop-opacity="0.45"/>
      <stop offset="1" stop-color="#fff8f1" stop-opacity="0.12"/>
    </linearGradient>
  </defs>
  <rect width="1200" height="400" fill="url(#bg)"/>
  <circle cx="1050" cy="70" r="120" fill="#fff8f1" opacity="0.38"/>
  <circle cx="980" cy="330" r="170" fill="#c79867" opacity="0.12"/>
  <circle cx="160" cy="80" r="140" fill="#ffffff" opacity="0.18"/>
  <rect x="72" y="56" width="320" height="288" rx="28" fill="url(#panel)"/>
  <g transform="translate(128,110)" fill="#b7895c">
    <path d="M95 0c18 0 32 14 32 32 0 8-3 16-8 22 19 10 31 30 31 52v16H40v-16c0-22 12-42 31-52-5-6-8-14-8-22 0-18 14-32 32-32z" opacity="0.92"/>
    <rect x="30" y="122" width="130" height="18" rx="9" opacity="0.86"/>
    <rect x="18" y="153" width="154" height="16" rx="8" opacity="0.72"/>
    <rect x="48" y="184" width="94" height="14" rx="7" opacity="0.55"/>
  </g>
  <g fill="#9c734e" opacity="0.30">
    <rect x="470" y="118" width="170" height="18" rx="9"/>
    <rect x="470" y="154" width="250" height="16" rx="8"/>
    <rect x="470" y="186" width="210" height="16" rx="8"/>
    <rect x="470" y="232" width="120" height="14" rx="7"/>
  </g>
</svg>
